<svg xmlns="http://www.w3.org/2000/svg" viewBox="0 0 1740 460"><defs><style>.cls-1{fill:#fdead2;}.cls-2{fill:#fbc98e;}.cls-3{fill:#f7940f;}.cls-4{fill:#f7941e;}.cls-5,.cls-6,.cls-8,.cls-9{fill:none;stroke-linecap:round;}.cls-5,.cls-6{stroke:#fbc98e;stroke-width:7px;}.cls-5{stroke-miterlimit:10;}.cls-6,.cls-8,.cls-9{stroke-linejoin:round;}.cls-7{fill:#fff;}.cls-8{stroke:#f7941e;}.cls-8,.cls-9{stroke-width:8px;}.cls-9{stroke:#000;}.cls-10{fill:#974e24;}.cls-11{fill:#ea8139;}.cls-12{fill:#693a1c;}.cls-13{fill:#f4ba90;}.cls-14{fill:#306dab;}.cls-15{fill:#518bc1;}.cls-16{fill:#1e5790;}.cls-17{fill:#16466b;}.cls-18{fill:#e77529;}.cls-19{fill:#8d4723;}.cls-20{fill:#b2c499;}.cls-21{fill:#495f2d;}.cls-22{fill:#72963f;}</style></defs><title>cloudWatc-diagram</title><g id="contents"><path class="cls-1" d="M136.88 418.47a96.5 96.5 0 0 1 0-193h423.89a96.5 96.5 0 0 1 0 193z"/><path class="cls-2" d="M560.77 229a93 93 0 0 1 0 186h-423.89a93 93 0 1 1 0-186h423.89m0-7h-423.89a100 100 0 0 0-100 100 100 100 0 0 0 100 100h423.89a100 100 0 0 0 100-100 100 100 0 0 0-100-100z"/><path class="cls-3" d="M379.58 154.47l-3-7.64h-15.1l-2.86 7.64h-10.23l16.33-38.94h9.13l16.15 38.94zm-10.45-28.54l-5 13.37h9.87zM431.22 154.47h-9.29l-7.7-26.34h-.17l-7.7 26.34h-9.36l-11-38.94h10.12l6.16 25.9h.17l6.93-25.9h9.79l7 25.9h.17l6.27-25.9h9.79zM466.92 125.65a8.51 8.51 0 0 0-3.16-2.45 8.93 8.93 0 0 0-3.77-.91 11.16 11.16 0 0 0-1.9.17 4.9 4.9 0 0 0-1.73.63 4.26 4.26 0 0 0-1.29 1.21 3.22 3.22 0 0 0-.52 1.9 3.06 3.06 0 0 0 .41 1.65 3.68 3.68 0 0 0 1.21 1.16 10.7 10.7 0 0 0 1.9.91q1.1.41 2.47.85 2 .66 4.13 1.46a15.46 15.46 0 0 1 3.91 2.12 11.14 11.14 0 0 1 2.92 3.27 9.43 9.43 0 0 1 1.15 4.87 12.71 12.71 0 0 1-1.24 5.8 11.58 11.58 0 0 1-3.33 4 14.28 14.28 0 0 1-4.79 2.37 20.15 20.15 0 0 1-5.55.77 23 23 0 0 1-8.09-1.46 17.12 17.12 0 0 1-6.49-4.15l6.16-6.27a11.36 11.36 0 0 0 3.77 2.94 10.21 10.21 0 0 0 4.65 1.18 9.36 9.36 0 0 0 2-.22 5.08 5.08 0 0 0 1.73-.72 3.58 3.58 0 0 0 1.18-1.32 4.16 4.16 0 0 0 .44-2 3.14 3.14 0 0 0-.55-1.87 5.4 5.4 0 0 0-1.57-1.4 12.79 12.79 0 0 0-2.53-1.16q-1.51-.52-3.44-1.13a32.76 32.76 0 0 1-3.66-1.43 12.23 12.23 0 0 1-3.19-2.12 9.77 9.77 0 0 1-2.25-3.13 10.61 10.61 0 0 1-.85-4.48 11 11 0 0 1 1.32-5.55 11.47 11.47 0 0 1 3.47-3.79 14.89 14.89 0 0 1 4.84-2.17 22 22 0 0 1 5.45-.69 20.24 20.24 0 0 1 6.74 1.21 17.36 17.36 0 0 1 6 3.58z"/><path class="cls-4" d="M379.58 154.47l-3-7.64h-15.1l-2.86 7.64h-10.23l16.33-38.94h9.13l16.15 38.94zm-10.45-28.54l-5 13.37h9.87zM431.22 154.47h-9.29l-7.7-26.34h-.17l-7.7 26.34h-9.36l-11-38.94h10.12l6.16 25.9h.17l6.93-25.9h9.79l7 25.9h.17l6.27-25.9h9.79zM466.92 125.65a8.51 8.51 0 0 0-3.16-2.45 8.93 8.93 0 0 0-3.77-.91 11.16 11.16 0 0 0-1.9.17 4.9 4.9 0 0 0-1.73.63 4.26 4.26 0 0 0-1.29 1.21 3.22 3.22 0 0 0-.52 1.9 3.06 3.06 0 0 0 .41 1.65 3.68 3.68 0 0 0 1.21 1.16 10.7 10.7 0 0 0 1.9.91q1.1.41 2.47.85 2 .66 4.13 1.46a15.46 15.46 0 0 1 3.91 2.12 11.14 11.14 0 0 1 2.92 3.27 9.43 9.43 0 0 1 1.15 4.87 12.71 12.71 0 0 1-1.24 5.8 11.58 11.58 0 0 1-3.33 4 14.28 14.28 0 0 1-4.79 2.37 20.15 20.15 0 0 1-5.55.77 23 23 0 0 1-8.09-1.46 17.12 17.12 0 0 1-6.49-4.15l6.16-6.27a11.36 11.36 0 0 0 3.77 2.94 10.21 10.21 0 0 0 4.65 1.18 9.36 9.36 0 0 0 2-.22 5.08 5.08 0 0 0 1.73-.72 3.58 3.58 0 0 0 1.18-1.32 4.16 4.16 0 0 0 .44-2 3.14 3.14 0 0 0-.55-1.87 5.4 5.4 0 0 0-1.57-1.4 12.79 12.79 0 0 0-2.53-1.16q-1.51-.52-3.44-1.13a32.76 32.76 0 0 1-3.66-1.43 12.23 12.23 0 0 1-3.19-2.12 9.77 9.77 0 0 1-2.25-3.13 10.61 10.61 0 0 1-.85-4.48 11 11 0 0 1 1.32-5.55 11.47 11.47 0 0 1 3.47-3.79 14.89 14.89 0 0 1 4.84-2.17 22 22 0 0 1 5.45-.69 20.24 20.24 0 0 1 6.74 1.21 17.36 17.36 0 0 1 6 3.58z"/><path class="cls-5" d="M660.67 322.47h63"/><path class="cls-6" d="M707.55 307.56l16.12 14.91-16.12 14.91"/><path d="M1730.44 265.46a1.58 1.58 0 0 1 1.56 1.54v109.93a1.58 1.58 0 0 1-1.56 1.56h-563.88a1.58 1.58 0 0 1-1.56-1.56v-109.93a1.58 1.58 0 0 1 1.56-1.56h563.89m0-8h-563.89a9.59 9.59 0 0 0-9.56 9.56v109.93a9.59 9.59 0 0 0 9.56 9.56h563.89a9.59 9.59 0 0 0 9.56-9.56v-109.93a9.59 9.59 0 0 0-9.56-9.56zM1411.51 316.56a10.8 10.8 0 0 0-4.24-3.6 14.87 14.87 0 0 0-6.61-1.32 15.17 15.17 0 0 0-7.29 1.6 13 13 0 0 0-5 5.37 10.66 10.66 0 0 0-4.76-5.29 15.21 15.21 0 0 0-7.25-1.68 13.74 13.74 0 0 0-4 .56 14.2 14.2 0 0 0-3.28 1.44 11.8 11.8 0 0 0-2.48 2 6.44 6.44 0 0 0-1.6 2.29h.4v-6h-13v39h13v-18.79a27.49 27.49 0 0 1 .2-3.68 9.14 9.14 0 0 1 1-3.16 5.71 5.71 0 0 1 2.19-2.24 7.39 7.39 0 0 1 3.76-.84 4.62 4.62 0 0 1 3.16 1 5.51 5.51 0 0 1 1.56 2.32 10.18 10.18 0 0 1 .31 2.88c.05 1-.17 1.87-.17 2.56v20h13v-20a15.56 15.56 0 0 1 .11-3.36 7.71 7.71 0 0 1 1.08-2.8 5.55 5.55 0 0 1 2.18-1.88 7.8 7.8 0 0 1 3.45-.68c2 0 3.29.66 4.07 2a9 9 0 0 1 1.11 4.69v22.05h12v-22.46a30.75 30.75 0 0 0-.63-6.61 15.15 15.15 0 0 0-2.27-5.37zM1454.76 316.84a12.64 12.64 0 0 0-5.45-3.88 24.28 24.28 0 0 0-8.69-1.32 28 28 0 0 0-9.29 1.56 22 22 0 0 0-7.85 4.68l6.41 6.57a14.78 14.78 0 0 1 4.36-3.4 11.77 11.77 0 0 1 5.41-1.24 8.24 8.24 0 0 1 5.41 1.88 6.25 6.25 0 0 1 2.28 5.09q-2.48 0-5.41.08a53.85 53.85 0 0 0-5.85.48 35.28 35.28 0 0 0-5.65 1.24 16.7 16.7 0 0 0-4.84 2.36 11.1 11.1 0 0 0-3.36 3.84 11.93 11.93 0 0 0-1.24 5.69 11.49 11.49 0 0 0 1.12 5.2 11 11 0 0 0 3 3.76 13.21 13.21 0 0 0 4.44 2.28 19.92 19.92 0 0 0 12.25-.43 11.43 11.43 0 0 0 5.33-4.32h.16v4h11v-19.22a41.46 41.46 0 0 0-.77-8.61 15 15 0 0 0-2.77-6.29zm-7.42 20.16a6.46 6.46 0 0 1-.76 3.2 6.58 6.58 0 0 1-2 2.24 10.14 10.14 0 0 1-2.92 1.36 12.06 12.06 0 0 1-3.4.48 7.7 7.7 0 0 1-3.84-1 3.43 3.43 0 0 1-1.84-3.2 3.88 3.88 0 0 1 1.32-3.12 8.75 8.75 0 0 1 3.2-1.68 17.48 17.48 0 0 1 3.92-.93c1.36-.08 2.49-.37 3.4-.37h3zM1486.35 322.21a7.3 7.3 0 0 1 3.44.84 6.75 6.75 0 0 1 2.48 2.12l7.93-8.33a15.33 15.33 0 0 0-6.61-4 24.87 24.87 0 0 0-7.25-1.16 24.54 24.54 0 0 0-8.45 1.44 20.32 20.32 0 0 0-6.89 4.12 19.36 19.36 0 0 0-4.61 6.45 21.86 21.86 0 0 0 0 16.82 19.35 19.35 0 0 0 4.61 6.45 20.29 20.29 0 0 0 6.89 4.12 24.52 24.52 0 0 0 8.45 1.44 24.87 24.87 0 0 0 7.25-1.16 15.32 15.32 0 0 0 6.61-4l-7.93-8.33a10.51 10.51 0 0 1-2.48 2.08 6.48 6.48 0 0 1-3.44.88 9.18 9.18 0 0 1-7.09-2.72 11.33 11.33 0 0 1 0-14.25 9.18 9.18 0 0 1 7.09-2.81zM1546.17 311.97h-14.74l-13.08 16.01v-37.01h-13v60h13v-20h-.05l13.13 20h15.14l-15.86-21.42 15.46-17.58zM1581.21 317.2a15.76 15.76 0 0 0-5.77-4.12 19.23 19.23 0 0 0-7.57-1.44 24.54 24.54 0 0 0-8.45 1.44 20.32 20.32 0 0 0-6.89 4.12 19.36 19.36 0 0 0-4.61 6.45 21.86 21.86 0 0 0 0 16.82 19.35 19.35 0 0 0 4.61 6.45 20.29 20.29 0 0 0 6.89 4.12 24.52 24.52 0 0 0 8.45 1.44 21.83 21.83 0 0 0 9.13-2 19.14 19.14 0 0 0 7.29-5.69l-8.41-6.17a13.44 13.44 0 0 1-3.56 3.4 9 9 0 0 1-5 1.32 8.78 8.78 0 0 1-5.93-2 10.33 10.33 0 0 1-3.12-5.41h28.08v-3.91a26 26 0 0 0-1.39-8.41 19 19 0 0 0-3.75-6.41zm-22.95 10.8a8.25 8.25 0 0 1 .68-2.92 7.53 7.53 0 0 1 1.68-2.4 8.67 8.67 0 0 1 6.13-2.34 7.24 7.24 0 0 1 5.37 2.31 7.34 7.34 0 0 1 2 5.35zM1616.8 311.64a11.56 11.56 0 0 0-6.65 1.86 11.27 11.27 0 0 0-4.56 5.47h-.24v-7h-12v39h12v-15.71a39.75 39.75 0 0 1 .36-5.28 10.19 10.19 0 0 1 1.42-4.13 7.25 7.25 0 0 1 3.09-2.68 12.79 12.79 0 0 1 5.45-1 13.67 13.67 0 0 1 2.38.2 22.14 22.14 0 0 1 2.3.6v-10.97c0-.16-1-.27-1.69-.32s-1.17-.04-1.86-.04zM1658.16 317.2a15.76 15.76 0 0 0-5.77-4.12 19.23 19.23 0 0 0-7.57-1.44 24.54 24.54 0 0 0-8.45 1.44 20.32 20.32 0 0 0-6.89 4.12 19.36 19.36 0 0 0-4.61 6.45 21.86 21.86 0 0 0 0 16.82 19.35 19.35 0 0 0 4.61 6.45 20.29 20.29 0 0 0 6.89 4.12 24.52 24.52 0 0 0 8.45 1.44 21.83 21.83 0 0 0 9.13-2 19.14 19.14 0 0 0 7.29-5.69l-8.41-6.17a13.44 13.44 0 0 1-3.56 3.4 9 9 0 0 1-5 1.32 8.78 8.78 0 0 1-5.93-2 10.33 10.33 0 0 1-3.12-5.41h28.13v-3.91a26 26 0 0 0-1.41-8.41 19.06 19.06 0 0 0-3.78-6.41zm-22.94 10.8a8.25 8.25 0 0 1 .68-2.92 7.53 7.53 0 0 1 1.68-2.4 8.67 8.67 0 0 1 6.13-2.34 7.24 7.24 0 0 1 5.37 2.31 7.34 7.34 0 0 1 2 5.35zM1670.34 290.97h12v60h-12zM1324.47 336.18a8.5 8.5 0 0 0-4.54 1.32l-17-17a8.57 8.57 0 1 0-14.5 0l-17 17a8.49 8.49 0 0 0-9.06 0l-17-17a8.56 8.56 0 1 0-14.52 0l-17 17a8.6 8.6 0 1 0 2.74 2.74l17-17a8.49 8.49 0 0 0 9 0l17 17a8.56 8.56 0 1 0 14.51 0l17-17a8.49 8.49 0 0 0 9.08 0l17 17a8.56 8.56 0 1 0 7.25-4z"/><path class="cls-4" d="M271.5 393.36h8.88v2.11h-11.26v-17h10.88v2.09h-8.5v5.09h8v2h-8zM285.92 393.36h7.58v2.11h-10v-17h2.38zM295.81 378.48h5.86a8.69 8.69 0 0 1 1.92.22 5.06 5.06 0 0 1 1.72.72 3.9 3.9 0 0 1 1.22 1.32 4.06 4.06 0 0 1 .47 2 3.54 3.54 0 0 1-.82 2.38 4.17 4.17 0 0 1-2.16 1.32 5 5 0 0 1 1.51.42 3.94 3.94 0 0 1 1.2.85 3.71 3.71 0 0 1 .78 1.25 4.47 4.47 0 0 1 .28 1.61 4.21 4.21 0 0 1-1.87 3.64 6.43 6.43 0 0 1-2 .89 9.91 9.91 0 0 1-2.48.3h-5.59zm2.38 7.18h3.1a5.1 5.1 0 0 0 1.28-.16 3.17 3.17 0 0 0 1.07-.48 2.35 2.35 0 0 0 .72-.82 2.49 2.49 0 0 0 .26-1.19 2.08 2.08 0 0 0-1-2 5.38 5.38 0 0 0-2.71-.59h-2.71zm0 7.8h3a8.73 8.73 0 0 0 1.5-.13 4.37 4.37 0 0 0 1.37-.47 2.74 2.74 0 0 0 1-.9 2.54 2.54 0 0 0 .37-1.43 2.41 2.41 0 0 0-1-2.18 5.46 5.46 0 0 0-3-.67h-3.19zM525.05 395.47h-2.38v-17h5.45a10.44 10.44 0 0 1 2.33.25 5.76 5.76 0 0 1 1.93.8 3.94 3.94 0 0 1 1.31 1.45 4.63 4.63 0 0 1 .48 2.2 4.09 4.09 0 0 1-1.15 3 5.37 5.37 0 0 1-3 1.46l4.75 7.8h-2.88l-4.32-7.56h-2.54zm0-9.55h2.74a8 8 0 0 0 1.56-.14 4 4 0 0 0 1.26-.47 2.6 2.6 0 0 0 .85-3.41 2.42 2.42 0 0 0-.83-.83 3.65 3.65 0 0 0-1.21-.44 7.85 7.85 0 0 0-1.46-.13h-2.9zM537.41 378.48h5.83a11.52 11.52 0 0 1 3.26.48 8.78 8.78 0 0 1 3 1.51 7.73 7.73 0 0 1 2.14 2.64 8.45 8.45 0 0 1 .82 3.86 8.21 8.21 0 0 1-.82 3.78 7.89 7.89 0 0 1-2.14 2.64 9.18 9.18 0 0 1-3 1.56 10.79 10.79 0 0 1-3.26.52h-5.83zm2.38 14.9h3a9 9 0 0 0 2.84-.43 6.59 6.59 0 0 0 2.26-1.25 5.6 5.6 0 0 0 1.48-2 6.67 6.67 0 0 0 .53-2.71 6.86 6.86 0 0 0-.53-2.78 5.48 5.48 0 0 0-1.48-2 6.51 6.51 0 0 0-2.26-1.22 9.28 9.28 0 0 0-2.84-.42h-3zM564.12 381.63a3.79 3.79 0 0 0-1.37-1.14 4.2 4.2 0 0 0-1.94-.44 4.5 4.5 0 0 0-1.16.16 3.18 3.18 0 0 0-1.07.5 2.76 2.76 0 0 0-.78.86 2.41 2.41 0 0 0-.3 1.24 2.25 2.25 0 0 0 .28 1.16 2.49 2.49 0 0 0 .74.79 4.75 4.75 0 0 0 1.1.55l1.36.47q.86.26 1.75.6a6.28 6.28 0 0 1 1.61.89 4.38 4.38 0 0 1 1.18 1.38 4.32 4.32 0 0 1 .46 2.1 5 5 0 0 1-.49 2.29 4.7 4.7 0 0 1-1.31 1.61 5.57 5.57 0 0 1-1.88.95 7.79 7.79 0 0 1-2.2.31 8 8 0 0 1-3.11-.62 6.18 6.18 0 0 1-2.48-1.85l1.85-1.56a4.62 4.62 0 0 0 3.79 2 4.45 4.45 0 0 0 1.2-.17 3.38 3.38 0 0 0 1.09-.53 2.89 2.89 0 0 0 .8-.9 2.57 2.57 0 0 0 .31-1.31 2.38 2.38 0 0 0-.32-1.28 2.87 2.87 0 0 0-.88-.88 5.8 5.8 0 0 0-1.28-.61l-1.55-.52a13.37 13.37 0 0 1-1.61-.59 5.54 5.54 0 0 1-1.42-.89 4.12 4.12 0 0 1-1-1.33 4.5 4.5 0 0 1-.38-2 4.37 4.37 0 0 1 .52-2.18 4.7 4.7 0 0 1 1.37-1.49 5.61 5.61 0 0 1 1.87-.88 8.21 8.21 0 0 1 2.1-.28 7.31 7.31 0 0 1 2.78.53 5.55 5.55 0 0 1 2.05 1.43zM114 395.47h-2.38v-17h5.45a10.43 10.43 0 0 1 2.33.25 5.75 5.75 0 0 1 1.93.8 3.94 3.94 0 0 1 1.31 1.45 4.61 4.61 0 0 1 .48 2.2 4.09 4.09 0 0 1-1.15 3 5.36 5.36 0 0 1-3 1.46l4.75 7.8h-2.88l-4.32-7.56h-2.52zm0-9.55h2.74a8 8 0 0 0 1.56-.14 3.94 3.94 0 0 0 1.26-.47 2.47 2.47 0 0 0 0-4.24 3.65 3.65 0 0 0-1.21-.44 7.86 7.86 0 0 0-1.46-.13h-2.89zM137.76 389.76a6.15 6.15 0 0 1-.47 2.42 5.77 5.77 0 0 1-1.3 1.91 5.85 5.85 0 0 1-2 1.25 6.84 6.84 0 0 1-4.85 0 5.7 5.7 0 0 1-1.94-1.25 5.83 5.83 0 0 1-1.28-1.91 6.14 6.14 0 0 1-.47-2.42 6.05 6.05 0 0 1 .47-2.41 5.73 5.73 0 0 1 1.28-1.88 5.81 5.81 0 0 1 1.94-1.24 6.85 6.85 0 0 1 4.85 0 6 6 0 0 1 2 1.24 5.67 5.67 0 0 1 1.3 1.88 6.07 6.07 0 0 1 .47 2.41zm-2.35 0a4.81 4.81 0 0 0-.25-1.56 4 4 0 0 0-.73-1.3 3.53 3.53 0 0 0-1.19-.9 4.11 4.11 0 0 0-3.25 0 3.52 3.52 0 0 0-1.19.9 3.92 3.92 0 0 0-.73 1.3 4.91 4.91 0 0 0 0 3.11 4.06 4.06 0 0 0 .73 1.32 3.45 3.45 0 0 0 1.19.91 4.11 4.11 0 0 0 3.25 0 3.46 3.46 0 0 0 1.19-.91 4.1 4.1 0 0 0 .73-1.32 4.8 4.8 0 0 0 .25-1.54zM148.9 395.47l-.07-1v-.9a3.71 3.71 0 0 1-1.45 1.55 4.2 4.2 0 0 1-2.27.64 4.65 4.65 0 0 1-1.91-.36 3.52 3.52 0 0 1-1.32-1 4.24 4.24 0 0 1-.88-1.4 6.24 6.24 0 0 1-.25-1.8v-7.1h2.25v6.29a7.91 7.91 0 0 0 .11 1.33 3.19 3.19 0 0 0 .4 1.12 2.15 2.15 0 0 0 .79.77 2.59 2.59 0 0 0 1.3.29 2.72 2.72 0 0 0 2.21-1 4.15 4.15 0 0 0 .84-2.72v-6h2.26v10c0 .48 0 .9.07 1.27zM160.42 385.94h-3v5.91a2.23 2.23 0 0 0 .38 1.47 1.54 1.54 0 0 0 1.22.44 3.74 3.74 0 0 0 .67-.07 2.79 2.79 0 0 0 .65-.2l.07 1.85a5.37 5.37 0 0 1-.9.23 6 6 0 0 1-1 .08 3.25 3.25 0 0 1-2.46-.89 3.72 3.72 0 0 1-.85-2.66v-6.17h-2.2v-1.83h2.18v-3.26h2.23v3.26h3zM173.38 389.69v.38a3 3 0 0 1 0 .38h-9a3.35 3.35 0 0 0 .32 1.35 3.55 3.55 0 0 0 .8 1.1 4 4 0 0 0 4.56.48 4.07 4.07 0 0 0 1.32-1.22l1.58 1.27a5.67 5.67 0 0 1-2.15 1.78 6.88 6.88 0 0 1-5.15.14 5.45 5.45 0 0 1-3.14-3.1 6.36 6.36 0 0 1-.46-2.45 6.53 6.53 0 0 1 .44-2.44 5.57 5.57 0 0 1 1.24-1.91 5.68 5.68 0 0 1 1.88-1.24 6.44 6.44 0 0 1 4.61 0 4.69 4.69 0 0 1 1.73 1.18 5.3 5.3 0 0 1 1.09 1.86 7.37 7.37 0 0 1 .33 2.44zm-2.3-.91a4.32 4.32 0 0 0-.23-1.26 2.91 2.91 0 0 0-.6-1 2.82 2.82 0 0 0-1-.68 3.48 3.48 0 0 0-1.38-.25 3.65 3.65 0 0 0-1.36.25 3.53 3.53 0 0 0-1.1.68 3.62 3.62 0 0 0-.77 1 3.26 3.26 0 0 0-.35 1.26zM186.31 380.54h-7l-.14 4.44a5.07 5.07 0 0 1 1.07-.24 9.06 9.06 0 0 1 1.12-.07 6.71 6.71 0 0 1 2.27.37 5.21 5.21 0 0 1 1.8 1.07 5 5 0 0 1 1.19 1.7 5.54 5.54 0 0 1 .38 2.19 6.2 6.2 0 0 1-.46 2.43 5.41 5.41 0 0 1-1.25 1.84 5.64 5.64 0 0 1-1.87 1.18 6.45 6.45 0 0 1-2.35.42 5.87 5.87 0 0 1-3.36-.92 5.75 5.75 0 0 1-2.06-2.48l2.11-.84a3.61 3.61 0 0 0 1.28 1.66 3.4 3.4 0 0 0 2 .62 3.64 3.64 0 0 0 1.39-.26 3.39 3.39 0 0 0 1.13-.74 3.46 3.46 0 0 0 .76-1.15 3.89 3.89 0 0 0 .28-1.49 4 4 0 0 0-.32-1.67 3.21 3.21 0 0 0-.88-1.16 3.58 3.58 0 0 0-1.27-.67 5.21 5.21 0 0 0-1.51-.22 7.76 7.76 0 0 0-2 .26 8.79 8.79 0 0 0-1.8.67l.24-9h9.17zM193.94 385.65h.74a7.32 7.32 0 0 0 1.4-.13 3.6 3.6 0 0 0 1.21-.46 2.5 2.5 0 0 0 .85-.88 2.69 2.69 0 0 0 .32-1.37 2.77 2.77 0 0 0-.24-1.17 2.6 2.6 0 0 0-.66-.88 3.22 3.22 0 0 0-2.1-.77 3 3 0 0 0-1.84.55 3.36 3.36 0 0 0-1.14 1.54l-2.11-.74a5 5 0 0 1 2-2.41 5.81 5.81 0 0 1 3.18-.88 6.56 6.56 0 0 1 2 .3 5 5 0 0 1 1.66.88 4.14 4.14 0 0 1 1.13 1.44 4.56 4.56 0 0 1 .42 2 3.89 3.89 0 0 1-.23 1.35 4.1 4.1 0 0 1-.62 1.13 3.9 3.9 0 0 1-.95.87 4 4 0 0 1-1.2.53 4.58 4.58 0 0 1 1.38.5 4 4 0 0 1 1.09.9 4.2 4.2 0 0 1 1 2.74 5 5 0 0 1-.48 2.24 4.79 4.79 0 0 1-1.26 1.62 5.47 5.47 0 0 1-1.82 1 7.16 7.16 0 0 1-5.67-.55 5.21 5.21 0 0 1-2.23-2.83l2.16-.72a3.73 3.73 0 0 0 1.31 1.8 3.66 3.66 0 0 0 2.27.7 3.94 3.94 0 0 0 1.26-.2 3.27 3.27 0 0 0 1.09-.61 3 3 0 0 0 .77-1 3.24 3.24 0 0 0 .29-1.42 2.71 2.71 0 0 0-.38-1.49 3 3 0 0 0-1-1 4.26 4.26 0 0 0-1.38-.53 7.63 7.63 0 0 0-1.51-.16h-.72zM396.1 393.36h8.9v2.11h-11.28v-17h10.9v2.09h-8.52v5.09h8v2h-8zM422.71 392.83a7.61 7.61 0 0 1-2.62 2.22 8.16 8.16 0 0 1-3.86.85 9.55 9.55 0 0 1-3.59-.66 8.36 8.36 0 0 1-2.83-1.85 8.49 8.49 0 0 1-1.86-2.83 10 10 0 0 1 0-7.25 8.2 8.2 0 0 1 1.9-2.81 8.62 8.62 0 0 1 2.87-1.81 9.8 9.8 0 0 1 3.6-.65 9.38 9.38 0 0 1 1.75.17 8.77 8.77 0 0 1 1.7.5 7 7 0 0 1 1.49.83 5.4 5.4 0 0 1 1.15 1.14l-1.87 1.44a4.69 4.69 0 0 0-1.76-1.43 5.48 5.48 0 0 0-2.46-.56 6.4 6.4 0 0 0-2.68.54 6 6 0 0 0-2 1.48 6.65 6.65 0 0 0-1.3 2.17 7.53 7.53 0 0 0-.46 2.63 7.94 7.94 0 0 0 .44 2.69 6.46 6.46 0 0 0 1.27 2.17 5.86 5.86 0 0 0 2 1.45 6.47 6.47 0 0 0 2.65.53 5.87 5.87 0 0 0 2.62-.58 5 5 0 0 0 1.94-1.68zM435.6 395.47h-11.09v-2.23l6.77-6.72a10.5 10.5 0 0 0 1.32-1.66 3.54 3.54 0 0 0 .55-1.94 3 3 0 0 0-.24-1.21 2.86 2.86 0 0 0-.65-.92 2.82 2.82 0 0 0-1-.59 3.4 3.4 0 0 0-1.18-.2 2.91 2.91 0 0 0-2.14.83 3.75 3.75 0 0 0-1.06 2.12l-2.28-.38a5.15 5.15 0 0 1 .61-1.79 5.23 5.23 0 0 1 2.86-2.39 6 6 0 0 1 2-.34 6.63 6.63 0 0 1 2 .31 5.31 5.31 0 0 1 1.72.91 4.38 4.38 0 0 1 1.19 1.51 4.72 4.72 0 0 1 .44 2.09 5.09 5.09 0 0 1-.22 1.51 6.17 6.17 0 0 1-.59 1.32 7.72 7.72 0 0 1-.88 1.19q-.5.56-1.06 1.12l-5.52 5.38h8.33z"/><path class="cls-3" d="M408.87 8a234 234 0 0 1 114 29.29 212.84 212.84 0 0 1 81.13 79.61 8 8 0 0 0 11.41 2.66c18.85-12.7 46.14-20 74.86-20a155.29 155.29 0 0 1 54 9.39 112.25 112.25 0 0 1 47.16 32.81c10.87 12.73 19.63 28.32 26.76 47.66a8 8 0 0 0 9.11 5.07 131.05 131.05 0 0 1 26.28-2.68 130.1 130.1 0 0 1 22.91 258.19h-.08a116.52 116.52 0 0 1-21.41 2h-716.9a130.1 130.1 0 1 1 0-260.19h27.9a8 8 0 0 0 7.75-6c10.24-40.13 31.81-77.26 62.38-107.37a244.74 244.74 0 0 1 114.61-63.44 248.73 248.73 0 0 1 58.13-7m0-8a256.22 256.22 0 0 0-60 7.18c-92.94 22.36-161.61 93.52-182.87 176.63h-27.9a138.1 138.1 0 0 0-138.1 138.09 138.1 138.1 0 0 0 138.1 138.1h716.9a124.16 124.16 0 0 0 22.93-2.13 138.1 138.1 0 1 0-52.2-271.21c-13.32-36.11-35.64-69.06-78.62-85.19a162.88 162.88 0 0 0-56.81-9.9c-30 0-59 7.68-79.33 21.36-39.97-69.75-117.17-112.93-202.1-112.93z"/><path class="cls-7" d="M966.67 309.97h40v24h-40z"/><path class="cls-8" d="M1081 322a14.9 14.9 0 1 1-29.81 0h-98.52"/><path class="cls-9" d="M1066.48 322a14.91 14.91 0 1 1 29.83 0h60.69"/><path class="cls-1" d="M849.05 425.77a103.8 103.8 0 1 1 103.8-103.77 103.91 103.91 0 0 1-103.8 103.77z"/><path class="cls-2" d="M849.05 221.67a100.3 100.3 0 1 1-100.29 100.33 100.41 100.41 0 0 1 100.3-100.3m0-7a107.3 107.3 0 1 0 107.29 107.3 107.3 107.3 0 0 0-107.3-107.3z"/><path class="cls-4" d="M797.08 388a7.81 7.81 0 0 1-2.61 2.41 7.59 7.59 0 0 1-3.85.92 8.84 8.84 0 0 1-3.58-.71 8.3 8.3 0 0 1-2.82-2 9.31 9.31 0 0 1-1.85-3.07 11 11 0 0 1-.67-3.91 10.92 10.92 0 0 1 .68-3.94 9 9 0 0 1 1.89-3 8.52 8.52 0 0 1 2.86-2 9.05 9.05 0 0 1 3.59-.7 8.67 8.67 0 0 1 1.75.18 8.16 8.16 0 0 1 1.7.55 6.91 6.91 0 0 1 1.48.9 5.64 5.64 0 0 1 1.15 1.23l-1.87 1.56a4.75 4.75 0 0 0-1.76-1.55 5.1 5.1 0 0 0-2.45-.61 6 6 0 0 0-2.67.58 6.1 6.1 0 0 0-2 1.6 7.4 7.4 0 0 0-1.29 2.35 8.81 8.81 0 0 0-.46 2.85 9.31 9.31 0 0 0 .44 2.91 7.14 7.14 0 0 0 1.27 2.35 5.89 5.89 0 0 0 2 1.57 6 6 0 0 0 2.64.57 5.46 5.46 0 0 0 2.61-.62 5.17 5.17 0 0 0 1.94-1.82zM801.67 390.9h-2.25v-19.66h2.25zM817.07 384.71a7.17 7.17 0 0 1-.47 2.63 6.31 6.31 0 0 1-1.29 2.07 5.8 5.8 0 0 1-2 1.35 6.3 6.3 0 0 1-4.83 0 5.64 5.64 0 0 1-1.94-1.35 6.4 6.4 0 0 1-1.28-2.07 7.15 7.15 0 0 1-.47-2.63 7 7 0 0 1 .47-2.61 6.26 6.26 0 0 1 1.28-2 5.75 5.75 0 0 1 1.94-1.34 6.31 6.31 0 0 1 4.83 0 5.91 5.91 0 0 1 2 1.34 6.18 6.18 0 0 1 1.29 2 7.07 7.07 0 0 1 .47 2.61zm-2.34 0a5.63 5.63 0 0 0-.25-1.69 4.39 4.39 0 0 0-.73-1.41 3.58 3.58 0 0 0-1.19-1 3.79 3.79 0 0 0-3.24 0 3.57 3.57 0 0 0-1.19 1 4.37 4.37 0 0 0-.73 1.41 5.76 5.76 0 0 0 0 3.37 4.51 4.51 0 0 0 .73 1.43 3.55 3.55 0 0 0 5.62 0 4.53 4.53 0 0 0 .73-1.43 5.62 5.62 0 0 0 .25-1.66zM828.17 390.9l-.07-1.05v-1a4.12 4.12 0 0 1-3.71 2.37 4.3 4.3 0 0 1-1.9-.39 3.57 3.57 0 0 1-1.32-1.08 4.77 4.77 0 0 1-.77-1.6 7.36 7.36 0 0 1-.25-2v-7.64h2.25v6.81a9.28 9.28 0 0 0 .11 1.44 3.65 3.65 0 0 0 .39 1.21 2.24 2.24 0 0 0 .79.83 2.42 2.42 0 0 0 1.29.31 2.63 2.63 0 0 0 2.2-1.11 4.77 4.77 0 0 0 .84-3v-6.55h2.25v9.67q0 .49 0 1.27t.07 1.38zM843.15 389a4.34 4.34 0 0 1-1.76 1.7 5 5 0 0 1-2.33.58 5.38 5.38 0 0 1-2.37-.51 5.32 5.32 0 0 1-1.79-1.39 6.38 6.38 0 0 1-1.15-2.08 7.88 7.88 0 0 1-.41-2.55 7.77 7.77 0 0 1 .41-2.54 6.29 6.29 0 0 1 1.16-2.07 5.32 5.32 0 0 1 1.81-1.38 5.39 5.39 0 0 1 2.32-.49 4.49 4.49 0 0 1 2.42.64 5.16 5.16 0 0 1 1.63 1.55v-9.18h2.25v19.62h-2.18v-2zm-7.46-4.22a5.75 5.75 0 0 0 .24 1.66 4.34 4.34 0 0 0 .72 1.43 3.69 3.69 0 0 0 1.17 1 3.63 3.63 0 0 0 3.19 0 3.81 3.81 0 0 0 1.21-1 4.49 4.49 0 0 0 .78-1.41 5.29 5.29 0 0 0 0-3.37 4.64 4.64 0 0 0-.78-1.43 3.74 3.74 0 0 0-1.21-1 3.37 3.37 0 0 0-1.57-.36 3.46 3.46 0 0 0-1.63.36 3.53 3.53 0 0 0-1.17 1 4.34 4.34 0 0 0-.72 1.43 5.75 5.75 0 0 0-.24 1.64zM853.89 387.16l4-14.66h2.61l3.95 14.66 3.73-14.66h2.51l-5 18.41h-2.46l-4.12-14.79-4.11 14.78h-2.46l-5-18.41h2.56zM880 382.92a2.56 2.56 0 0 0-.77-2 3 3 0 0 0-2-.66 4.16 4.16 0 0 0-1.81.4 4.56 4.56 0 0 0-1.42 1l-1.2-1.56a6 6 0 0 1 2-1.35 6.79 6.79 0 0 1 2.59-.49 5.45 5.45 0 0 1 2.12.38 4 4 0 0 1 1.47 1 4.28 4.28 0 0 1 .86 1.53 6.12 6.12 0 0 1 .29 1.9v6.6899999999999995a7.28 7.28 0 0 0 .13 1.13h-2a8.31 8.31 0 0 1-.19-1.77h-.07a4.5 4.5 0 0 1-1.57 1.53 4.39 4.39 0 0 1-2.24.55 5.41 5.41 0 0 1-1.4-.19 3.91 3.91 0 0 1-1.33-.64 3.48 3.48 0 0 1-1-1.17 3.73 3.73 0 0 1-.4-1.79 3.33 3.33 0 0 1 .69-2.22 4.37 4.37 0 0 1 1.82-1.25 9.57 9.57 0 0 1 2.54-.56q1.41-.13 2.85-.13zm-.55 2.11q-.84 0-1.73.08a7.4 7.4 0 0 0-1.63.31 3 3 0 0 0-1.21.7 1.66 1.66 0 0 0-.48 1.25 1.86 1.86 0 0 0 .2.91 1.77 1.77 0 0 0 .54.6 2.06 2.06 0 0 0 .74.33 3.82 3.82 0 0 0 .84.09 3 3 0 0 0 2.43-1 3.92 3.92 0 0 0 .85-2.59v-.71zM891.44 380.58h-3v6.42a2.58 2.58 0 0 0 .38 1.59 1.47 1.47 0 0 0 1.22.48 3.43 3.43 0 0 0 .67-.07 2.56 2.56 0 0 0 .65-.21l.07 2a5.23 5.23 0 0 1-.9.25 5.58 5.58 0 0 1-1 .09 3.09 3.09 0 0 1-2.45-1 4.25 4.25 0 0 1-.85-2.89v-6.68h-2.23v-2h2.18v-3.56h2.22v3.54h3zM901.7 381.7a2.83 2.83 0 0 0-1.08-1 3.08 3.08 0 0 0-1.53-.4 3.28 3.28 0 0 0-1.57.36 3.62 3.62 0 0 0-1.16 1 4.39 4.39 0 0 0-.73 1.42 5.82 5.82 0 0 0 0 3.38 4.36 4.36 0 0 0 .73 1.42 3.57 3.57 0 0 0 1.17 1 3.58 3.58 0 0 0 3.15 0 3.28 3.28 0 0 0 1.16-1l1.51 1.48a4.92 4.92 0 0 1-1.79 1.42 5.66 5.66 0 0 1-2.44.51 6.21 6.21 0 0 1-2.43-.47 5.72 5.72 0 0 1-1.92-1.31 6.1 6.1 0 0 1-1.28-2 7.32 7.32 0 0 1-.47-2.68 7.42 7.42 0 0 1 .46-2.65 6.1 6.1 0 0 1 1.27-2.05 5.63 5.63 0 0 1 1.93-1.33 6.15 6.15 0 0 1 2.4-.47 5.88 5.88 0 0 1 2.38.52 4.41 4.41 0 0 1 1.88 1.51zM907.92 380.45a3.7 3.7 0 0 1 1.39-1.56 3.9 3.9 0 0 1 2.2-.65 4.12 4.12 0 0 1 1.89.4 3.88 3.88 0 0 1 1.32 1.08 4.5 4.5 0 0 1 .78 1.59 7.33 7.33 0 0 1 .25 2v7.64h-2.25v-6.83a9.2 9.2 0 0 0-.11-1.43 3.67 3.67 0 0 0-.4-1.2 2.27 2.27 0 0 0-.78-.83 2.35 2.35 0 0 0-1.28-.31 2.67 2.67 0 0 0-2.2 1.11 4.7 4.7 0 0 0-.86 3v6.54h-2.25v-19.76h2.25v9.2zM797.08 388a7.81 7.81 0 0 1-2.61 2.41 7.59 7.59 0 0 1-3.85.92 8.84 8.84 0 0 1-3.58-.71 8.3 8.3 0 0 1-2.82-2 9.31 9.31 0 0 1-1.85-3.07 11 11 0 0 1-.67-3.91 10.92 10.92 0 0 1 .68-3.94 9 9 0 0 1 1.89-3 8.52 8.52 0 0 1 2.86-2 9.05 9.05 0 0 1 3.59-.7 8.67 8.67 0 0 1 1.75.18 8.16 8.16 0 0 1 1.7.55 6.91 6.91 0 0 1 1.48.9 5.64 5.64 0 0 1 1.15 1.23l-1.87 1.56a4.75 4.75 0 0 0-1.76-1.55 5.1 5.1 0 0 0-2.45-.61 6 6 0 0 0-2.67.58 6.1 6.1 0 0 0-2 1.6 7.4 7.4 0 0 0-1.29 2.35 8.81 8.81 0 0 0-.46 2.85 9.31 9.31 0 0 0 .44 2.91 7.14 7.14 0 0 0 1.27 2.35 5.89 5.89 0 0 0 2 1.57 6 6 0 0 0 2.64.57 5.46 5.46 0 0 0 2.61-.62 5.17 5.17 0 0 0 1.94-1.82zM801.67 390.9h-2.25v-19.66h2.25zM817.07 384.71a7.17 7.17 0 0 1-.47 2.63 6.31 6.31 0 0 1-1.29 2.07 5.8 5.8 0 0 1-2 1.35 6.3 6.3 0 0 1-4.83 0 5.64 5.64 0 0 1-1.94-1.35 6.4 6.4 0 0 1-1.28-2.07 7.15 7.15 0 0 1-.47-2.63 7 7 0 0 1 .47-2.61 6.26 6.26 0 0 1 1.28-2 5.75 5.75 0 0 1 1.94-1.34 6.31 6.31 0 0 1 4.83 0 5.91 5.91 0 0 1 2 1.34 6.18 6.18 0 0 1 1.29 2 7.07 7.07 0 0 1 .47 2.61zm-2.34 0a5.63 5.63 0 0 0-.25-1.69 4.39 4.39 0 0 0-.73-1.41 3.58 3.58 0 0 0-1.19-1 3.79 3.79 0 0 0-3.24 0 3.57 3.57 0 0 0-1.19 1 4.37 4.37 0 0 0-.73 1.41 5.76 5.76 0 0 0 0 3.37 4.51 4.51 0 0 0 .73 1.43 3.55 3.55 0 0 0 5.62 0 4.53 4.53 0 0 0 .73-1.43 5.62 5.62 0 0 0 .25-1.66zM828.17 390.9l-.07-1.05v-1a4.12 4.12 0 0 1-3.71 2.37 4.3 4.3 0 0 1-1.9-.39 3.57 3.57 0 0 1-1.32-1.08 4.77 4.77 0 0 1-.77-1.6 7.36 7.36 0 0 1-.25-2v-7.64h2.25v6.81a9.28 9.28 0 0 0 .11 1.44 3.65 3.65 0 0 0 .39 1.21 2.24 2.24 0 0 0 .79.83 2.42 2.42 0 0 0 1.29.31 2.63 2.63 0 0 0 2.2-1.11 4.77 4.77 0 0 0 .84-3v-6.55h2.25v9.67q0 .49 0 1.27t.07 1.38zM843.15 389a4.34 4.34 0 0 1-1.76 1.7 5 5 0 0 1-2.33.58 5.38 5.38 0 0 1-2.37-.51 5.32 5.32 0 0 1-1.79-1.39 6.38 6.38 0 0 1-1.15-2.08 7.88 7.88 0 0 1-.41-2.55 7.77 7.77 0 0 1 .41-2.54 6.29 6.29 0 0 1 1.16-2.07 5.32 5.32 0 0 1 1.81-1.38 5.39 5.39 0 0 1 2.32-.49 4.49 4.49 0 0 1 2.42.64 5.16 5.16 0 0 1 1.63 1.55v-9.18h2.25v19.62h-2.18v-2zm-7.46-4.22a5.75 5.75 0 0 0 .24 1.66 4.34 4.34 0 0 0 .72 1.43 3.69 3.69 0 0 0 1.17 1 3.63 3.63 0 0 0 3.19 0 3.81 3.81 0 0 0 1.21-1 4.49 4.49 0 0 0 .78-1.41 5.29 5.29 0 0 0 0-3.37 4.64 4.64 0 0 0-.78-1.43 3.74 3.74 0 0 0-1.21-1 3.37 3.37 0 0 0-1.57-.36 3.46 3.46 0 0 0-1.63.36 3.53 3.53 0 0 0-1.17 1 4.34 4.34 0 0 0-.72 1.43 5.75 5.75 0 0 0-.24 1.64zM853.89 387.16l4-14.66h2.61l3.95 14.66 3.73-14.66h2.51l-5 18.41h-2.46l-4.12-14.79-4.11 14.78h-2.46l-5-18.41h2.56zM880 382.92a2.56 2.56 0 0 0-.77-2 3 3 0 0 0-2-.66 4.16 4.16 0 0 0-1.81.4 4.56 4.56 0 0 0-1.42 1l-1.2-1.56a6 6 0 0 1 2-1.35 6.79 6.79 0 0 1 2.59-.49 5.45 5.45 0 0 1 2.12.38 4 4 0 0 1 1.47 1 4.28 4.28 0 0 1 .86 1.53 6.12 6.12 0 0 1 .29 1.9v6.6899999999999995a7.28 7.28 0 0 0 .13 1.13h-2a8.31 8.31 0 0 1-.19-1.77h-.07a4.5 4.5 0 0 1-1.57 1.53 4.39 4.39 0 0 1-2.24.55 5.41 5.41 0 0 1-1.4-.19 3.91 3.91 0 0 1-1.33-.64 3.48 3.48 0 0 1-1-1.17 3.73 3.73 0 0 1-.4-1.79 3.33 3.33 0 0 1 .69-2.22 4.37 4.37 0 0 1 1.82-1.25 9.57 9.57 0 0 1 2.54-.56q1.41-.13 2.85-.13zm-.55 2.11q-.84 0-1.73.08a7.4 7.4 0 0 0-1.63.31 3 3 0 0 0-1.21.7 1.66 1.66 0 0 0-.48 1.25 1.86 1.86 0 0 0 .2.91 1.77 1.77 0 0 0 .54.6 2.06 2.06 0 0 0 .74.33 3.82 3.82 0 0 0 .84.09 3 3 0 0 0 2.43-1 3.92 3.92 0 0 0 .85-2.59v-.71zM891.44 380.58h-3v6.42a2.58 2.58 0 0 0 .38 1.59 1.47 1.47 0 0 0 1.22.48 3.43 3.43 0 0 0 .67-.07 2.56 2.56 0 0 0 .65-.21l.07 2a5.23 5.23 0 0 1-.9.25 5.58 5.58 0 0 1-1 .09 3.09 3.09 0 0 1-2.45-1 4.25 4.25 0 0 1-.85-2.89v-6.68h-2.23v-2h2.18v-3.56h2.22v3.54h3zM901.7 381.7a2.83 2.83 0 0 0-1.08-1 3.08 3.08 0 0 0-1.53-.4 3.28 3.28 0 0 0-1.57.36 3.62 3.62 0 0 0-1.16 1 4.39 4.39 0 0 0-.73 1.42 5.82 5.82 0 0 0 0 3.38 4.36 4.36 0 0 0 .73 1.42 3.57 3.57 0 0 0 1.17 1 3.58 3.58 0 0 0 3.15 0 3.28 3.28 0 0 0 1.16-1l1.51 1.48a4.92 4.92 0 0 1-1.79 1.42 5.66 5.66 0 0 1-2.44.51 6.21 6.21 0 0 1-2.43-.47 5.72 5.72 0 0 1-1.92-1.31 6.1 6.1 0 0 1-1.28-2 7.32 7.32 0 0 1-.47-2.68 7.42 7.42 0 0 1 .46-2.65 6.1 6.1 0 0 1 1.27-2.05 5.63 5.63 0 0 1 1.93-1.33 6.15 6.15 0 0 1 2.4-.47 5.88 5.88 0 0 1 2.38.52 4.41 4.41 0 0 1 1.88 1.51zM907.92 380.45a3.7 3.7 0 0 1 1.39-1.56 3.9 3.9 0 0 1 2.2-.65 4.12 4.12 0 0 1 1.89.4 3.88 3.88 0 0 1 1.32 1.08 4.5 4.5 0 0 1 .78 1.59 7.33 7.33 0 0 1 .25 2v7.64h-2.25v-6.83a9.2 9.2 0 0 0-.11-1.43 3.67 3.67 0 0 0-.4-1.2 2.27 2.27 0 0 0-.78-.83 2.35 2.35 0 0 0-1.28-.31 2.67 2.67 0 0 0-2.2 1.11 4.7 4.7 0 0 0-.86 3v6.54h-2.25v-19.76h2.25v9.2z"/><path class="cls-10" d="M377.25 277.89l-4.16 2.08v58.6l4.16 2.08 16.81-29.86-16.81-32.9z"/><path class="cls-11" d="M386.92 338.37l-9.67 2.28v-62.76l9.67 2.22v58.26z"/><path class="cls-10" d="M381.83 275.6l5.09-2.55 24.24 38.85-24.24 33.58-5.09-2.54v-67.34z"/><path class="cls-11" d="M399 342.07l-12.08 3.41v-72.43l12.08 3.43v65.59z"/><path class="cls-10" d="M392.61 270.21l6.39-3.2 35.75 49.14-35.75 35.37-6.39-3.19v-78.12z"/><path class="cls-11" d="M414.49 345.87l-15.49 5.65v-84.5l15.49 5.66v73.19z"/><path class="cls-10" d="M406.24 263.4l8.25-4.13 38.68 52.83-38.68 47.17-8.25-4.13v-91.74z"/><path class="cls-11" d="M455.92 338.56l-41.43 20.71v-100l41.43 20.71v58.58z"/><path class="cls-10" d="M250.84 277.89l-4.15 2.08v58.6l4.15 2.07 16.46-31.37-16.46-31.38z"/><path class="cls-11" d="M260.52 338.37l-9.68 2.27v-62.75l9.68 2.22v58.26z"/><path class="cls-10" d="M255.43 275.6l5.09-2.55 12.08 36.22-12.08 36.22-5.09-2.55v-67.34z"/><path class="cls-11" d="M272.6 342.07l-12.08 3.42v-72.44l12.08 3.43v65.59z"/><path class="cls-10" d="M266.21 270.21l6.39-3.2 39.9 42.26-39.9 42.25-6.39-3.19v-78.12z"/><path class="cls-11" d="M315.73 335.55l-43.13 15.97v-84.51l43.13 15.77v52.77z"/><path class="cls-12" d="M310.15 301.39l-8.05.51-22.27-1.88 8.26-40.75 22.06 42.12z"/><path class="cls-10" d="M288.09 299.18v-39.91l-8.26 4.13v36.62l8.26-.84z"/><path class="cls-11" d="M310.15 301.39v-31.09l-22.06-11.03v39.91l22.06 2.21z"/><path class="cls-13" d="M310.15 316.88l-7.63-.48-22.69 1.92 8.26 40.95 22.06-42.39z"/><path class="cls-10" d="M279.83 318.32v36.82l8.26 4.13v-40.2l-8.26-.75z"/><path class="cls-11" d="M288.09 319.07v40.2l22.06-11.03v-31.36l-22.06 2.19z"/><path class="cls-13" d="M329.51 314.96l-4.74-.19-12.27 1.09 5.19 28.61 11.82-29.51z"/><path class="cls-11" d="M317.69 316.13v28.34l11.82-5.91v-23.6l-11.82 1.17z"/><path class="cls-12" d="M329.51 303.33l-4.74.19-12.27-1.09 5.19-28.36 11.82 29.26z"/><path class="cls-11" d="M329.51 303.33v-23.35l-11.82-5.91v28.07l11.82 1.19z"/><path class="cls-10" d="M312.5 343.1l5.19 1.37v-28.34l-5.19-.27v27.24zM312.5 275.44l5.19-1.37v28.07l-5.19.29v-26.99z"/><path class="cls-14" d="M588.38 281.36l-11.11-12.2-15.67 40.11 15.67 40.08 11.11-12.17v-55.82z"/><path class="cls-15" d="M557.83 359.27l19.44-9.92v-80.19l-19.44-9.89-23.09 50 23.09 50z"/><path class="cls-14" d="M530.05 359.27h27.78v-100h-27.78l-16.67 50 16.67 50z"/><path class="cls-16" d="M510.61 349.34l19.44 9.93v-100l-19.44 9.89-8.6 40.11 8.6 40.07z"/><path class="cls-17" d="M499.49 337.17l11.12 12.17v-80.18l-11.12 12.2v55.81z"/><g id="Layer_1"><path class="cls-11" d="M173.8 350.47l-17.6 8.8v-100l17.6 8.8v82.4z"/><path class="cls-10" d="M138.74 350.47l17.46 8.8v-100l-17.46 8.8v82.4z"/><path class="cls-11" d="M149.67 295.67l-29.47-3.73v-14.67l29.47 7.07v11.33z"/><path class="cls-10" d="M114.87 279.94l5.33-2.67v14.67l-5.33 1.46v-13.46z"/><path class="cls-12" d="M149.67 295.67l-6.13.93-28.67-3.2 5.33-1.46 29.47 3.73z"/><path class="cls-18" d="M193.4 321.8l4.4-.8v-11.73h-4.4v12.53z"/><path class="cls-19" d="M162.74 319.14l30.66 2.93v-12.8h-30.66v9.87z"/></g><path class="cls-20" d="M905.48 321.75l-53.15-7.81-53.18 7.82 53.15 37.51 53.18-37.52z"/><path class="cls-21" d="M809.79 320.84l8.98 2.7 21.12-32.38-21.12-32.38-8.98 3.44v58.62z"/><path class="cls-22" d="M850.58 318.06l-31.81 5.59v-64.87l31.81 7.16v52.12z"/><path class="cls-21" d="M836.4 328.95l-12.4-3.72v-80.06l12.4-6.2 36.74 47.36-36.74 42.62z"/><path class="cls-22" d="M878.88 319.09l-42.48 9.96v-90.08l42.48 16.56v63.56z"/><path class="cls-21" d="M852.3 340.61l-53.15-18.85v10.93l53.15 26.58v-18.66z"/><path class="cls-22" d="M905.48 332.68l-53.18 26.59v-18.66l53.18-18.86v10.93z"/><path class="cls-20" d="M890.54 303.64h-12.89l-36.73 2.5 11.39 27.58 38.23-30.08z"/><path class="cls-21" d="M840.92 330.31l11.39 3.41-.01-26.35-11.38-1.23v24.17z"/><path class="cls-22" d="M890.54 303.64l-38.24 3.73.01 26.35 38.23-11.51v-18.57z"/></g></svg>